<svg width="261" height="72" viewBox="0 0 261 72" fill="none" xmlns="http://www.w3.org/2000/svg">
<path d="M71.8146 30.1289C71.8146 30.763 72.3218 31.2806 72.9558 31.2936L73.2911 31.3004C73.7388 31.3095 74.097 31.6751 74.097 32.1229C74.097 32.5772 73.7287 32.9455 73.2743 32.9455H62.6226C62.1683 32.9455 61.8 32.5772 61.8 32.1229C61.8 31.6751 62.1582 31.3095 62.6059 31.3004L62.9412 31.2936C63.5752 31.2806 64.0824 30.763 64.0824 30.1289V4.58489C64.0824 3.95076 63.5752 3.43311 62.9412 3.42019L62.6059 3.41335C62.1582 3.40422 61.8 3.03868 61.8 2.59089C61.8 2.13656 62.1683 1.76826 62.6226 1.76826H73.2743C73.7287 1.76826 74.097 2.13656 74.097 2.59089C74.097 3.03868 73.7388 3.40422 73.2911 3.41335L72.9558 3.42019C72.3218 3.43311 71.8146 3.95076 71.8146 4.58489V30.1289ZM91.8298 31.3004C92.2774 31.3095 92.6356 31.6751 92.6356 32.1229C92.6356 32.5772 92.2673 32.9455 91.813 32.9455H78.972C78.5177 32.9455 78.1494 32.5772 78.1494 32.1229C78.1494 31.6751 78.5076 31.3095 78.9553 31.3004L78.9848 31.2998C79.6345 31.2866 80.0313 30.5807 79.7049 30.0188L74.1317 20.4228C73.1462 18.7259 73.2444 16.6095 74.3827 15.0111L81.7485 4.66858C82.119 4.1484 81.7558 3.42581 81.1173 3.4128C80.6847 3.40398 80.3386 3.05078 80.3386 2.61811V2.59089C80.3386 2.13656 80.7069 1.76826 81.1613 1.76826H90.6027C91.0566 1.76826 91.4245 2.13622 91.4245 2.59012C91.4245 3.0381 91.0658 3.40356 90.6179 3.41184L89.6295 3.43013C89.1666 3.43869 88.7243 3.62244 88.3916 3.94432L81.553 10.5607C79.8228 12.2346 79.5312 14.9038 80.859 16.9119L89.9142 30.6063C90.1891 31.0221 90.6507 31.2764 91.149 31.2865L91.8298 31.3004Z" fill="#3A405A"/>
<path d="M104.522 11.3076C107.255 11.3076 109.398 12.3003 110.95 14.2857C111.696 15.2055 112.262 16.2799 112.65 17.509C113.456 20.0649 111.166 22.3117 108.487 22.399L105.126 22.5085C102.596 22.5909 100.462 25.1456 102.333 26.8497C103.389 27.8113 104.786 28.2922 106.525 28.2922C108.709 28.2922 110.527 27.7499 111.979 26.6655C112.251 26.4621 112.632 26.4605 112.886 26.6861C113.117 26.8916 113.18 27.2292 113.027 27.4981C111.968 29.3572 110.577 30.8318 108.854 31.9218C107.022 33.0696 105.066 33.6435 102.985 33.6435C100.16 33.6435 97.9082 32.7128 96.2313 30.8515C94.5855 28.9592 93.7626 26.4153 93.7626 23.2201C93.7626 21.3277 94.1353 19.4509 94.8805 17.5895C95.5482 15.9886 96.3653 14.6172 97.3316 13.4753C97.6419 13.1086 98.0226 12.8061 98.4585 12.6044C99.1525 12.2834 99.9783 12.0062 100.936 11.7729C102.209 11.4627 103.405 11.3076 104.522 11.3076ZM103.591 20.9435C105.165 20.8104 106.417 19.4725 106.152 17.9154C105.996 17.0005 105.764 16.2094 105.454 15.5421C105.352 15.3219 105.242 15.117 105.125 14.9275C104.204 13.4353 102.128 14.0246 101.426 15.6318C101.285 15.954 101.153 16.2964 101.029 16.6589C100.563 18.0859 100.33 19.5595 100.33 21.0795C100.33 21.1547 100.395 21.2137 100.469 21.2074L103.591 20.9435Z" fill="#3A405A"/>
<path d="M114.778 32.2435C114.778 31.8778 115.059 31.5733 115.423 31.5438L115.636 31.5265C116.124 31.487 116.498 31.0776 116.494 30.5883L116.277 4.63336C116.273 4.09031 115.772 3.68746 115.241 3.79923L115.14 3.82044C114.773 3.89751 114.407 3.6898 114.285 3.33583C114.147 2.93733 114.368 2.50436 114.772 2.38233L121.732 0.277661C122.27 0.114841 122.85 0.342615 123.134 0.828372C123.244 1.01716 123.301 1.23217 123.299 1.45078L123.076 30.5886C123.072 31.0778 123.447 31.487 123.934 31.5265L124.147 31.5438C124.512 31.5733 124.793 31.8778 124.793 32.2435C124.793 32.6312 124.478 32.9455 124.091 32.9455H115.48C115.092 32.9455 114.778 32.6312 114.778 32.2435Z" fill="#3A405A"/>
<path d="M126.286 32.2435C126.286 31.8778 126.567 31.5733 126.932 31.5438L127.145 31.5265C127.632 31.487 128.007 31.0776 128.003 30.5883L127.786 4.63336C127.781 4.09031 127.281 3.68746 126.749 3.79923L126.648 3.82044C126.282 3.89751 125.915 3.6898 125.793 3.33583C125.656 2.93733 125.877 2.50436 126.28 2.38233L133.24 0.277661C133.779 0.11484 134.358 0.342613 134.642 0.828369C134.752 1.01716 134.81 1.23217 134.808 1.45078L134.584 30.5886C134.58 31.0778 134.955 31.487 135.443 31.5265L135.656 31.5438C136.02 31.5733 136.301 31.8778 136.301 32.2435C136.301 32.6312 135.987 32.9455 135.599 32.9455H126.988C126.601 32.9455 126.286 32.6312 126.286 32.2435Z" fill="#3A405A"/>
<path d="M148.462 11.3076C151.567 11.3076 154.067 12.2227 155.961 14.053C157.855 15.8833 158.802 18.4892 158.802 21.8706C158.802 23.3286 158.538 24.8332 158.01 26.3843C157.513 27.9354 156.768 29.3004 155.774 30.4792C154.781 31.4409 153.616 32.2165 152.281 32.8059C150.977 33.3643 149.595 33.6435 148.135 33.6435C145.03 33.6435 142.53 32.7283 140.636 30.898C138.742 29.0677 137.795 26.4619 137.795 23.0805C137.795 21.6534 138.059 20.1644 138.587 18.6133C139.115 17.0622 139.875 15.6972 140.869 14.5184C141.863 13.5567 143.012 12.7811 144.316 12.1917C145.651 11.6023 147.033 11.3076 148.462 11.3076ZM144.502 20.8469C144.502 23.794 145.077 25.9965 146.226 27.4546C146.809 28.1755 147.525 28.7524 148.375 29.1851C149.977 30.0015 151.715 28.7304 151.908 26.9427C152.033 25.7949 152.095 24.8487 152.095 24.1042C152.095 21.1261 151.505 18.9235 150.325 17.4965C149.776 16.8006 149.104 16.239 148.308 15.8116C146.701 14.9488 144.933 16.2474 144.689 18.0549C144.564 19.2027 144.502 20.1334 144.502 20.8469Z" fill="#3A405A"/>
<path d="M174.065 28.6092C174.278 28.9848 174.174 29.4606 173.823 29.7131L170.066 32.4208C169.214 33.0342 168.186 33.4055 167.147 33.2593C165.658 33.0497 164.517 32.5263 163.726 31.6891C162.701 30.5413 162.189 28.711 162.189 26.1982V15.3808C162.189 14.519 161.49 13.8204 160.628 13.8204H160.003C159.486 13.8204 159.068 13.4018 159.068 12.8855C159.068 12.5438 159.255 12.231 159.549 12.0573C160.718 11.3677 161.97 10.4508 163.307 9.30664C164.664 8.1404 165.915 6.92675 167.058 5.66567C167.358 5.33549 167.82 5.20167 168.246 5.33083C168.739 5.48002 169.069 5.94255 169.051 6.45711L168.95 9.23308C168.895 10.7477 170.108 12.0056 171.624 12.0056H173.33C173.865 12.0056 174.299 12.4394 174.299 12.9746C174.299 13.5161 173.855 13.9525 173.314 13.9434L171.528 13.9134C170.005 13.8878 168.756 15.1155 168.756 16.6388V24.5695C168.756 26.0586 169.036 27.1444 169.595 27.8268C170.098 28.4089 170.737 28.7428 171.511 28.8284C171.78 28.8582 172.048 28.7803 172.284 28.6466L172.911 28.2906C173.318 28.0602 173.834 28.2028 174.065 28.6092Z" fill="#3A405A"/>
<path d="M190.267 15.4956C190.267 16.3331 190.593 17.0932 191.245 17.7757C191.929 18.4582 192.953 19.2647 194.32 20.1954C195.997 21.3432 197.27 22.3825 198.139 23.3131C199.009 24.2438 199.443 25.3916 199.443 26.7566C199.443 27.9664 199.086 29.0988 198.372 30.1535C197.658 31.2083 196.649 32.0614 195.344 32.7128C194.04 33.3333 192.55 33.6435 190.873 33.6435C189.258 33.6435 187.721 33.2557 186.262 32.4802C185.551 32.0943 184.933 31.6548 184.406 31.1615C183.513 30.324 183.796 28.9396 184.751 28.1738C185.972 27.1955 187.772 27.5736 188.612 28.893C188.979 29.4691 189.348 30.0102 189.72 30.5161C190.361 31.3866 191.636 31.5258 192.224 30.6188C192.596 30.0604 192.783 29.5176 192.783 28.9902C192.783 28.1216 192.457 27.377 191.804 26.7566C191.183 26.1051 190.205 25.3296 188.87 24.4299C187.783 23.7164 186.914 23.096 186.262 22.5686C185.609 22.0412 185.05 21.4053 184.585 20.6607C184.15 19.9162 183.933 19.0786 183.933 18.1479C183.933 17.0001 184.305 15.8988 185.05 14.8441C185.827 13.7893 186.898 12.9362 188.264 12.2848C189.631 11.6333 191.183 11.3076 192.922 11.3076C194.258 11.3076 195.515 11.6023 196.695 12.1917C197.116 12.3855 197.508 12.598 197.872 12.8292C198.976 13.5297 198.908 15.0443 197.977 15.9622C196.921 17.0038 195.199 16.8889 194.19 15.8016C193.85 15.4362 193.504 15.0798 193.152 14.7323C192.053 13.6502 190.267 13.9532 190.267 15.4956Z" fill="#3A405A"/>
<path d="M211.962 11.3076C215.068 11.3076 217.568 12.2227 219.462 14.053C221.356 15.8833 222.303 18.4892 222.303 21.8706C222.303 23.3286 222.039 24.8332 221.511 26.3843C221.014 27.9354 220.269 29.3004 219.275 30.4792C218.282 31.4409 217.117 32.2165 215.782 32.8059C214.478 33.3643 213.096 33.6435 211.636 33.6435C208.531 33.6435 206.031 32.7283 204.137 30.898C202.243 29.0677 201.296 26.4619 201.296 23.0805C201.296 21.6534 201.56 20.1644 202.088 18.6133C202.616 17.0622 203.376 15.6972 204.37 14.5184C205.364 13.5567 206.513 12.7811 207.817 12.1917C209.152 11.6023 210.534 11.3076 211.962 11.3076ZM208.003 20.8469C208.003 23.794 208.578 25.9965 209.727 27.4546C210.31 28.1755 211.026 28.7523 211.876 29.1851C213.478 30.0015 215.216 28.7304 215.409 26.9427C215.534 25.7949 215.596 24.8487 215.596 24.1042C215.596 21.1261 215.006 18.9235 213.826 17.4965C213.277 16.8006 212.605 16.239 211.809 15.8116C210.202 14.9488 208.434 16.2474 208.19 18.0549C208.065 19.2027 208.003 20.1334 208.003 20.8469Z" fill="#3A405A"/>
<path d="M226.148 4.1616C226.148 3.00689 226.947 2.00608 228.074 1.75117L229.047 1.53085C230.616 1.17561 232.11 2.3688 232.11 3.97798C232.11 5.22153 231.199 6.27746 229.969 6.45987L228.982 6.60627C227.489 6.82766 226.148 5.67087 226.148 4.1616ZM232.582 30.5887C232.578 31.0779 232.953 31.487 233.441 31.5265L233.654 31.5438C234.018 31.5733 234.299 31.8778 234.299 32.2435C234.299 32.6312 233.985 32.9455 233.597 32.9455H224.987C224.599 32.9455 224.285 32.6312 224.285 32.2435C224.285 31.8778 224.565 31.5733 224.93 31.5438L225.143 31.5265C225.63 31.487 226.005 31.0776 226.001 30.5883L225.877 15.9409C225.873 15.3978 225.372 14.995 224.84 15.1068L224.742 15.1276C224.374 15.2049 224.006 14.9965 223.884 14.6413C223.746 14.2432 223.966 13.8104 224.368 13.686L231.145 11.5913C231.683 11.4252 232.264 11.6514 232.548 12.1374C232.658 12.3252 232.715 12.5391 232.713 12.7566L232.582 30.5887Z" fill="#3A405A"/>
<path d="M236.828 29.5454C236.833 28.2402 237.74 27.1121 239.013 26.8258L239.204 26.783C240.856 26.4116 242.427 27.6683 242.427 29.362C242.427 29.7604 242.336 30.1537 242.163 30.5124L238.701 37.6742C238.555 37.976 238.268 38.1849 237.936 38.231C237.331 38.3148 236.793 37.8438 236.795 37.2335L236.828 29.5454Z" fill="#3A405A"/>
<path d="M104.064 50.269C104.482 50.269 104.821 50.6081 104.821 51.0263C104.821 51.4345 104.498 51.7692 104.09 51.7832L104.006 51.7862C103.679 51.7974 103.388 51.996 103.259 52.2961L96.0769 68.956C95.5552 70.1662 94.396 70.979 93.0805 71.0571C91.558 71.1474 90.1534 70.2381 89.6125 68.8121L83.3574 52.3199C83.239 52.0077 82.9449 51.7971 82.6112 51.7856L82.5424 51.7832C82.1346 51.7692 81.8112 51.4345 81.8112 51.0263C81.8112 50.6081 82.1503 50.269 82.5685 50.269H92.0971C92.5132 50.269 92.8505 50.6063 92.8505 51.0224C92.8505 51.4315 92.524 51.7658 92.1151 51.7756L92.0076 51.7781C91.4436 51.7915 91.0437 52.3334 91.1972 52.8763L91.9544 55.5542C92.7897 58.5084 96.988 58.4766 97.7786 55.5102L98.4812 52.8735C98.6264 52.3288 98.2238 51.7917 97.6602 51.7783L97.5452 51.7756C97.1363 51.7658 96.8098 51.4315 96.8098 51.0224C96.8098 50.6063 97.1471 50.269 97.5632 50.269H104.064Z" fill="#3A405A"/>
<path d="M122.588 68.1219C122.743 68.4953 122.576 68.9243 122.211 69.0958L116.867 71.6017C116.341 71.848 115.71 71.8141 115.314 71.3897C114.593 70.6157 113.413 70.1218 112.46 70.5818C111.941 70.8323 111.419 71.0568 110.894 71.2555C109.776 71.6898 108.797 71.9069 107.959 71.9069C106.686 71.9069 105.646 71.4571 104.838 70.5575C104.031 69.6578 103.627 68.51 103.627 67.114C103.627 66.4936 103.689 65.8266 103.813 65.1131C104.052 63.9704 105.056 63.2353 106.208 63.0507L112.912 61.9767C113.694 61.8514 114.286 61.2033 114.34 60.4132C114.403 59.0172 114.108 57.9315 113.455 57.1559C112.803 56.3493 111.747 55.946 110.288 55.946C109.636 55.946 108.953 56.0236 108.238 56.1787C107.737 56.2658 107.29 56.3757 106.896 56.5086C106.586 56.6132 106.345 56.8538 106.205 57.15L105.956 57.6786C105.798 58.0146 105.409 58.1737 105.061 58.0448C104.702 57.912 104.511 57.5202 104.627 57.1556L105.869 53.2726C106.309 51.8969 107.314 50.7449 108.694 50.3191C110.311 49.8204 111.867 49.571 113.362 49.571C115.567 49.571 117.368 50.1604 118.765 51.3393C120.163 52.4871 120.862 54.3019 120.862 56.7836L120.815 57.7143L120.349 63.9963L120.256 65.6715C120.256 66.2299 120.303 66.6797 120.396 67.021C120.431 67.1375 120.474 67.2561 120.527 67.377C120.691 67.7537 121.137 67.8916 121.52 67.7434L121.617 67.7061C122 67.558 122.431 67.7426 122.588 68.1219ZM112.291 68.5565C112.549 68.5565 112.827 68.5064 113.127 68.4063C113.696 68.2158 113.996 67.6206 113.968 67.021L114.014 65.9972L114.019 65.9142C114.086 64.6286 112.902 63.6372 111.649 63.9299C110.979 64.0863 110.434 64.5902 110.395 65.2765C110.386 65.444 110.381 65.6222 110.381 65.8111C110.381 66.7418 110.567 67.4398 110.94 67.9051C111.313 68.3394 111.763 68.5565 112.291 68.5565Z" fill="#3A405A"/>
<path d="M126.485 42.425C126.485 41.2703 127.285 40.2695 128.411 40.0146L129.385 39.7943C130.954 39.439 132.447 40.6322 132.447 42.2414C132.447 43.485 131.537 44.5409 130.306 44.7233L129.319 44.8697C127.826 45.0911 126.485 43.9343 126.485 42.425ZM132.92 68.8522C132.916 69.3414 133.291 69.7504 133.778 69.7899L133.991 69.8072C134.356 69.8367 134.637 70.1412 134.637 70.5069C134.637 70.8946 134.322 71.2089 133.935 71.2089H125.324C124.936 71.2089 124.622 70.8946 124.622 70.5069C124.622 70.1412 124.903 69.8367 125.267 69.8072L125.48 69.79C125.968 69.7505 126.342 69.341 126.338 68.8517L126.215 54.2043C126.21 53.6613 125.709 53.2585 125.178 53.3702L125.079 53.391C124.712 53.4683 124.344 53.2599 124.221 52.9048C124.084 52.5067 124.303 52.0738 124.706 51.9494L131.483 49.8548C132.02 49.6886 132.602 49.9149 132.885 50.4008C132.995 50.5887 133.052 50.8026 133.051 51.0201L132.92 68.8522Z" fill="#3A405A"/>
<path d="M151.331 53.759C151.331 54.5966 151.657 55.3566 152.309 56.0391C152.992 56.7216 154.017 57.5282 155.383 58.4588C157.06 59.6067 158.334 60.6459 159.203 61.5766C160.072 62.5072 160.507 63.655 160.507 65.02C160.507 66.2299 160.15 67.3622 159.436 68.4169C158.722 69.4717 157.712 70.3248 156.408 70.9763C155.104 71.5967 153.613 71.9069 151.937 71.9069C150.322 71.9069 148.785 71.5191 147.325 70.7436C146.615 70.3578 145.996 69.9182 145.47 69.4249C144.577 68.5874 144.86 67.203 145.815 66.4372C147.036 65.4589 148.836 65.837 149.676 67.1564C150.043 67.7326 150.412 68.2736 150.784 68.7795C151.424 69.6501 152.7 69.7892 153.287 68.8823C153.66 68.3239 153.846 67.781 153.846 67.2536C153.846 66.385 153.52 65.6405 152.868 65.02C152.247 64.3686 151.269 63.593 149.934 62.6934C148.847 61.9799 147.977 61.3594 147.325 60.832C146.673 60.3047 146.114 59.6687 145.648 58.9242C145.214 58.1796 144.996 57.342 144.996 56.4114C144.996 55.2636 145.369 54.1623 146.114 53.1075C146.89 52.0528 147.962 51.1997 149.328 50.5482C150.694 49.8967 152.247 49.571 153.986 49.571C155.321 49.571 156.579 49.8657 157.759 50.4551C158.179 50.6489 158.572 50.8614 158.936 51.0926C160.04 51.7931 159.972 53.3077 159.041 54.2256C157.985 55.2673 156.263 55.1523 155.253 54.065C154.914 53.6997 154.568 53.3432 154.215 52.9958C153.116 51.9136 151.331 52.2166 151.331 53.759Z" fill="#3A405A"/>
<path d="M173.026 49.571C176.132 49.571 178.631 50.4862 180.526 52.3165C182.42 54.1468 183.367 56.7526 183.367 60.134C183.367 61.5921 183.103 63.0966 182.575 64.6478C182.078 66.1989 181.333 67.5638 180.339 68.7427C179.346 69.7044 178.181 70.4799 176.846 71.0693C175.542 71.6277 174.16 71.9069 172.7 71.9069C169.595 71.9069 167.095 70.9918 165.201 69.1615C163.307 67.3312 162.359 64.7253 162.359 61.3439C162.359 59.9169 162.623 58.4278 163.151 56.8767C163.679 55.3256 164.44 53.9606 165.434 52.7818C166.427 51.8201 167.576 51.0445 168.881 50.4551C170.216 49.8657 171.598 49.571 173.026 49.571ZM169.067 59.1103C169.067 62.0574 169.641 64.26 170.79 65.718C171.374 66.439 172.09 67.0158 172.939 67.4485C174.541 68.2649 176.28 66.9938 176.473 65.2061C176.597 64.0583 176.659 63.1122 176.659 62.3676C176.659 59.3895 176.069 57.1869 174.889 55.7599C174.341 55.064 173.669 54.5024 172.873 54.075C171.266 53.2122 169.498 54.5108 169.253 56.3183C169.129 57.4661 169.067 58.3968 169.067 59.1103Z" fill="#3A405A"/>
<path d="M187.211 42.425C187.211 41.2703 188.011 40.2695 189.137 40.0146L190.111 39.7943C191.68 39.439 193.174 40.6322 193.174 42.2414C193.174 43.485 192.263 44.5409 191.033 44.7233L190.045 44.8697C188.552 45.0911 187.211 43.9343 187.211 42.425ZM193.646 68.8522C193.642 69.3414 194.017 69.7504 194.504 69.7899L194.718 69.8072C195.082 69.8367 195.363 70.1412 195.363 70.5069C195.363 70.8946 195.049 71.2089 194.661 71.2089H186.05C185.663 71.2089 185.348 70.8946 185.348 70.5069C185.348 70.1412 185.629 69.8367 185.994 69.8072L186.206 69.79C186.694 69.7505 187.069 69.341 187.064 68.8517L186.941 54.2043C186.936 53.6613 186.436 53.2585 185.904 53.3702L185.805 53.391C185.438 53.4683 185.07 53.2599 184.947 52.9048C184.81 52.5066 185.03 52.0738 185.432 51.9495L192.209 49.8548C192.747 49.6886 193.328 49.9149 193.612 50.4008C193.721 50.5887 193.778 50.8026 193.777 51.0201L193.646 68.8522Z" fill="#3A405A"/>
<path d="M220.231 67.3691C220.355 67.7063 220.22 68.0836 219.91 68.265L216.874 70.041C215.099 71.0799 212.804 70.9411 211.612 69.2641C210.667 67.9328 209.838 66.3164 209.126 64.4151C208.849 63.634 207.969 63.25 207.208 63.5777L206.735 63.7813C206.037 64.0816 205.582 64.7659 205.576 65.5257L205.547 68.8516C205.543 69.341 205.917 69.7505 206.405 69.79L206.618 69.8072C206.982 69.8367 207.263 70.1412 207.263 70.5069C207.263 70.8946 206.949 71.2089 206.561 71.2089H197.951C197.563 71.2089 197.249 70.8946 197.249 70.5069C197.249 70.1412 197.529 69.8367 197.894 69.8072L198.107 69.79C198.594 69.7505 198.969 69.341 198.965 68.8517L198.748 42.8968C198.743 42.3538 198.243 41.9509 197.711 42.0627L197.61 42.0839C197.244 42.1609 196.878 41.9532 196.755 41.5993C196.618 41.2008 196.839 40.7678 197.243 40.6458L204.203 38.541C204.741 38.3783 205.321 38.606 205.604 39.0917C205.714 39.2805 205.772 39.4957 205.77 39.7144L205.696 48.9885C205.674 51.6211 208.96 52.8356 210.656 50.8224C211.369 49.9759 212.531 49.5905 213.53 50.0673C214.858 50.7012 215.89 51.575 216.626 52.6887C217.428 53.8678 217.926 55.3426 218.118 57.1132C218.234 58.179 217.57 59.1513 216.585 59.5732L214.545 60.4467C214.233 60.58 214.099 60.948 214.25 61.2508C214.747 62.4297 215.415 63.5775 216.253 64.6943C216.948 65.6206 217.623 66.3655 218.275 66.929C218.512 67.1336 218.852 67.1555 219.126 67.0035L219.175 66.9762C219.573 66.7552 220.075 66.9417 220.231 67.3691ZM205.623 59.7886C205.606 61.0645 206.932 61.9162 208.086 61.3701L210.095 60.4185C211.182 59.9038 211.902 58.7583 211.309 57.7121C211.24 57.5903 211.164 57.4669 211.083 57.342C210.292 56.0586 208.586 56.4451 207.449 57.4352L206.215 58.5106C205.845 58.833 205.629 59.2978 205.623 59.7886Z" fill="#3A405A"/>
<path d="M232.024 49.571C235.129 49.571 237.629 50.4862 239.523 52.3165C241.417 54.1468 242.365 56.7526 242.365 60.134C242.365 61.5921 242.101 63.0966 241.573 64.6478C241.076 66.1989 240.331 67.5638 239.337 68.7427C238.343 69.7044 237.179 70.4799 235.843 71.0693C234.539 71.6277 233.157 71.9069 231.698 71.9069C228.592 71.9069 226.093 70.9918 224.199 69.1615C222.304 67.3312 221.357 64.7253 221.357 61.3439C221.357 59.9169 221.621 58.4278 222.149 56.8767C222.677 55.3256 223.438 53.9606 224.431 52.7818C225.425 51.8201 226.574 51.0445 227.878 50.4551C229.214 49.8657 230.595 49.571 232.024 49.571ZM228.065 59.1103C228.065 62.0574 228.639 64.26 229.788 65.718C230.372 66.439 231.088 67.0158 231.937 67.4485C233.539 68.2649 235.277 66.9938 235.471 65.2061C235.595 64.0583 235.657 63.1122 235.657 62.3676C235.657 59.3895 235.067 57.1869 233.887 55.7599C233.339 55.064 232.667 54.5024 231.871 54.075C230.264 53.2122 228.495 54.5108 228.251 56.3183C228.127 57.4661 228.065 58.3968 228.065 59.1103Z" fill="#3A405A"/>
<path d="M252.103 60.3334C250.708 61.1426 248.923 61.242 247.989 59.9276C247.983 59.9189 247.977 59.9101 247.97 59.9014C247.38 59.0638 247.085 58.2727 247.085 57.5282C247.085 56.8147 247.38 56.1167 247.97 55.4342C248.591 54.7517 249.492 53.9141 250.672 52.9214C251.79 51.9907 252.628 51.1997 253.187 50.5482C253.777 49.8967 254.072 49.2608 254.072 48.6403C254.072 47.4305 253.622 46.4688 252.722 45.7553C251.821 45.0418 250.175 44.5609 247.784 44.3127L247.144 44.2466C246.713 44.2021 246.298 44.4203 246.091 44.8001L245.923 45.1078C245.74 45.4432 245.324 45.5735 244.982 45.4028C244.646 45.2348 244.499 44.8341 244.647 44.4885L246.19 40.8749C246.836 39.3614 248.203 38.2326 249.849 38.2177C249.906 38.2172 249.963 38.2169 250.02 38.2169C253.187 38.2169 255.734 38.7753 257.659 39.8921C259.584 41.0089 260.609 42.6686 260.733 44.8711C260.795 45.9879 260.438 46.9651 259.662 47.8027C258.917 48.6093 257.783 49.54 256.262 50.5947C255.113 51.3703 254.259 52.0373 253.7 52.5957C253.141 53.123 252.861 53.6969 252.861 54.3174C252.861 54.8448 253.001 55.4342 253.28 56.0856C253.433 56.4246 253.59 56.708 253.752 56.9359C253.97 57.2414 254.38 57.2813 254.716 57.1138L254.92 57.0118C255.277 56.8336 255.71 56.9747 255.894 57.3287C256.074 57.6748 255.95 58.1009 255.612 58.2966L252.103 60.3334ZM248.297 68.1096C248.297 66.6567 249.303 65.3977 250.72 65.0777L251.279 64.9515C253.236 64.5097 255.097 65.9976 255.097 68.0038C255.097 69.552 253.965 70.8675 252.434 71.098L251.867 71.1832C249.988 71.4662 248.297 70.0106 248.297 68.1096Z" fill="#3A405A"/>
<path fill-rule="evenodd" clip-rule="evenodd" d="M50.0045 21.4305C50.0045 37.5535 55.1558 45.9196 60.1917 50.8281C61.2461 51.8558 62.0446 53.3174 61.3468 54.614C60.5395 56.1142 58.9507 57.148 57.148 57.148H4.76234C2.95964 57.148 1.37085 56.1142 0.56352 54.614C-0.134206 53.3174 0.664286 51.8558 1.71864 50.8281C6.75458 45.9196 11.9058 37.5535 11.9058 21.4305C11.9058 14.649 17.2372 7.26398 26.2128 5.29148C26.9514 5.12915 27.3834 4.32802 27.3834 3.57175C27.3834 1.59985 28.9833 0 30.9552 0C32.9271 0 34.5269 1.59985 34.5269 3.57175C34.5269 4.32802 34.959 5.12915 35.6976 5.29148C44.6732 7.26398 50.0045 14.649 50.0045 21.4305ZM23.1399 52.1861C23.5153 52.7343 23.9017 53.2184 24.2991 53.6383C25.439 54.8427 27.2619 54.709 28.6858 53.859L36.2313 49.3547C36.8072 49.0109 37.0194 48.2803 36.7172 47.6815C36.3976 47.048 35.6231 46.7961 34.992 47.1204L34.6895 47.2758C34.1162 47.5704 33.4093 47.4997 33.0422 46.97C32.7635 46.5677 32.4927 46.0666 32.23 45.4667C31.7516 44.3194 31.5124 43.2815 31.5124 42.3528C31.5124 41.2602 31.9908 40.2495 32.9477 39.3208C33.9045 38.3375 35.3665 37.1629 37.3333 35.7972C39.9381 33.9398 41.8784 32.3009 43.1542 30.8805C44.4832 29.4055 45.0945 27.6847 44.9882 25.718C44.7756 21.8393 43.0213 18.9167 39.7255 16.95C36.4296 14.9833 32.0706 14 26.6483 14C25.9333 14 25.2371 14.0241 24.5596 14.0724C22.869 14.1928 21.4718 15.3547 20.822 16.9201L17.4316 25.088C17.1878 25.6754 17.4357 26.3516 18.0014 26.6423C18.5956 26.9476 19.3249 26.7188 19.6381 26.1287L19.925 25.5882C20.2775 24.924 20.9984 24.541 21.7461 24.6204L22.8209 24.7347C26.9142 25.1718 29.7315 26.0185 31.2731 27.275C32.8148 28.5315 33.5856 30.225 33.5856 32.3555C33.5856 33.4481 33.0806 34.5681 32.0706 35.7153C31.1137 36.8625 29.6784 38.2556 27.7647 39.8944C25.7446 41.6426 24.203 43.1176 23.1399 44.3194C22.1298 45.5213 21.6248 46.7505 21.6248 48.0069C21.6248 49.3181 22.1298 50.7111 23.1399 52.1861Z" fill="#3A405A"/>
<path d="M25 65.6759C25 63.3503 26.6034 61.3317 28.8687 60.8055L30.5105 60.4242C33.6454 59.696 36.6418 62.0761 36.6418 65.2945V66.3508C36.6418 68.8168 34.8439 70.9145 32.4069 71.2919L30.7652 71.5461C27.7349 72.0154 25 69.6714 25 66.605V65.6759Z" fill="#3A405A"/>
</svg>
